<svg xmlns="http://www.w3.org/2000/svg" viewBox="0 0 24 24">
  <path fill="white" d="M24 7.8L6.442 15.276c-1.456.616-2.679.925-3.668.925-1.456 0-2.406-.616-2.406-1.848 0-1.232 1.188-2.464 3.404-2.772l9.804-1.54c1.98-.308 3.143-.924 3.143-1.848 0-.924-.891-1.54-2.406-1.54-2.406 0-5.61 1.232-9.606 3.696L0 7.8C4.554 5.028 8.91 3.696 12.858 3.696c3.27 0 5.412 1.54 5.412 4.004 0 1.848-1.188 3.388-3.668 4.312L5.61 13.428c-.792.308-1.188.616-1.188 1.232 0 .616.495.924 1.485.924.792 0 1.881-.308 3.27-.924L24 7.8z"/>
</svg>